<svg width="196" height="178" viewBox="0 0 196 178" fill="none" xmlns="http://www.w3.org/2000/svg">
<path d="M68.5387 61.1875C68.5387 70.4004 61.9544 77.875 53.8388 77.875C45.7231 77.875 39.1388 70.4004 39.1388 61.1875C39.1388 51.9746 45.7231 44.5 53.8388 44.5C61.9544 44.5 68.5387 51.9746 68.5387 61.1875ZM29.4 107.53C29.4 97.309 36.7194 89 45.7231 89H66.9769C69.7637 89 72.4281 89.7996 74.725 91.225C64.8025 95.3621 57.2075 104.957 54.7575 116.812H37.5769C33.0444 116.812 29.4 112.675 29.4 107.53ZM120.999 91.225C123.572 89.7996 126.236 89 129.023 89H150.277C159.281 89 166.6 97.309 166.6 107.53C166.6 112.675 162.956 116.812 158.423 116.812H141.243C138.793 104.957 131.198 95.3621 120.999 91.225ZM113.925 100.16C121.888 102.002 128.411 108.364 131.044 116.812C131.871 119.42 132.3 122.236 132.3 125.156C132.3 129.78 129.023 133.5 124.95 133.5H71.05C66.9769 133.5 63.7 129.78 63.7 125.156C63.7 122.236 64.1288 119.42 64.9556 116.812C67.5894 108.364 73.8369 102.002 81.7994 100.16C83.2694 100.229 84.4944 100.125 85.75 100.125H110.25C111.506 100.125 112.731 100.229 113.925 100.16ZM156.8 61.1875C156.8 70.4004 150.216 77.875 142.1 77.875C133.984 77.875 127.4 70.4004 127.4 61.1875C127.4 51.9746 133.984 44.5 142.1 44.5C150.216 44.5 156.8 51.9746 156.8 61.1875ZM78.4 66.75C78.4 54.4777 87.1894 44.5 98 44.5C108.811 44.5 117.6 54.4777 117.6 66.75C117.6 79.0223 108.811 89 98 89C87.1894 89 78.4 79.0223 78.4 66.75ZM166.6 0C182.831 0 196 14.9423 196 33.375V144.625C196 163.051 182.831 178 166.6 178H29.4C13.1626 178 0 163.051 0 144.625V33.375C0 14.9423 13.1626 0 29.4 0H166.6ZM19.6 144.625C19.6 150.779 23.9886 155.75 29.4 155.75H166.6C172.021 155.75 176.4 150.779 176.4 144.625V33.375C176.4 27.2319 172.021 22.25 166.6 22.25H29.4C23.9886 22.25 19.6 27.2319 19.6 33.375V144.625Z" fill="black"/>
</svg>
