<svg width="212" height="166" viewBox="0 0 212 166" fill="none" xmlns="http://www.w3.org/2000/svg">
<path d="M132.5 10.375C141.278 10.375 148.4 17.3425 148.4 25.9375V108.938C148.4 117.529 141.278 124.5 132.5 124.5H88.3444L91.8556 134.875H116.6C122.463 134.875 127.2 139.511 127.2 145.25C127.2 150.989 122.463 155.625 116.6 155.625H31.8C25.9468 155.625 21.2 150.989 21.2 145.25C21.2 139.511 25.9468 134.875 31.8 134.875H56.5444L60.0556 124.5H15.9C7.11856 124.5 0 117.529 0 108.938V25.9375C0 17.3425 7.11856 10.375 15.9 10.375H132.5ZM21.2 31.125V103.75H127.2V31.125H21.2ZM196.1 10.375C204.878 10.375 212 17.3425 212 25.9375V140.062C212 148.654 204.878 155.625 196.1 155.625H174.9C166.122 155.625 159 148.654 159 140.062V25.9375C159 17.3425 166.122 10.375 174.9 10.375H196.1ZM180.2 31.125C177.285 31.125 174.9 33.4594 174.9 36.3125C174.9 39.1656 177.285 41.5 180.2 41.5H190.8C193.715 41.5 196.1 39.1656 196.1 36.3125C196.1 33.4594 193.715 31.125 190.8 31.125H180.2ZM180.2 62.25H190.8C193.715 62.25 196.1 59.9156 196.1 57.0625C196.1 54.2094 193.715 51.875 190.8 51.875H180.2C177.285 51.875 174.9 54.2094 174.9 57.0625C174.9 59.9156 177.285 62.25 180.2 62.25ZM185.5 129.688C191.363 129.688 196.1 125.051 196.1 119.312C196.1 113.574 191.363 108.938 185.5 108.938C179.637 108.938 174.9 113.574 174.9 119.312C174.9 125.051 179.637 129.688 185.5 129.688Z" fill="black"/>
</svg>
